<svg width="74" height="74" viewBox="0 0 74 74" fill="none" xmlns="http://www.w3.org/2000/svg">
<g clip-path="url(#clip0_41_2501)">
<path d="M65.9062 0H8.09375C3.6237 0 0 3.6237 0 8.09375V65.9062C0 70.3763 3.6237 74 8.09375 74H65.9062C70.3763 74 74 70.3763 74 65.9062V8.09375C74 3.6237 70.3763 0 65.9062 0Z" fill="#092E20"/>
<path d="M53.8746 27.229V46.3727C53.8746 52.9688 53.392 56.1324 51.9442 58.8674C50.6034 61.4955 48.8335 63.1574 45.1873 64.9809L37.5188 61.3343C41.1654 59.6185 42.9349 58.1174 44.0609 55.8107C45.2409 53.4514 45.6166 50.7164 45.6166 43.5308V27.229H53.8746ZM40.7371 14.4759V52.701C36.5007 53.5053 33.3904 53.8271 30.0123 53.8271C19.9305 53.8271 14.6753 49.2693 14.6753 40.528C14.6753 32.1089 20.2526 26.6395 28.8859 26.6395C30.2264 26.6395 31.2452 26.7464 32.4788 27.0682V14.4759H40.7371ZM29.6905 33.2885C25.5078 33.2885 23.0945 35.8627 23.0945 40.3668C23.0945 44.7644 25.4005 47.1774 29.6369 47.1774C30.5481 47.1774 31.2992 47.1237 32.4788 46.9632V33.7171C31.5136 33.3958 30.7093 33.2885 29.6905 33.2885ZM53.8746 14.5198V22.9926H45.6166V14.5198H53.8746Z" fill="#FFFFFD"/>
</g>
<defs>
<clipPath id="clip0_41_2501">
<rect width="74" height="74" fill="white"/>
</clipPath>
</defs>
</svg>
