<svg width="64" height="64" viewBox="0 0 64 64" fill="none" xmlns="http://www.w3.org/2000/svg">
<path d="M56.2667 29.4667L34.5333 7.73335C33.8667 7.06669 32.9333 6.66669 32 6.66669C31.0667 6.66669 30.1333 7.06669 29.4667 7.73335L24.8 12.4L30.2667 17.8667C30.8 17.6 31.3333 17.4667 32 17.4667C34.2667 17.4667 36 19.2 36 21.4667C36 22.1334 35.8667 22.6667 35.6 23.2L40.9333 28.5334C41.4667 28.2667 42 28.1334 42.6667 28.1334C44.9333 28.1334 46.6667 29.8667 46.6667 32.1334C46.6667 34.4 44.9333 36.1334 42.6667 36.1334C40.4 36.1334 38.6667 34.4 38.6667 32.1334C38.6667 31.4667 38.8 30.9334 39.0667 30.4L33.7333 25.0667C33.6 25.0667 33.4667 25.2 33.3333 25.2V39.0667C34.9333 39.6 36 41.0667 36 42.8C36 45.0667 34.2667 46.8 32 46.8C29.7333 46.8 28 45.0667 28 42.8C28 41.0667 29.0667 39.6 30.6667 39.0667V25.0667C29.0667 24.5334 28 23.0667 28 21.3334C28 20.6667 28.1333 20.1334 28.4 19.6L22.9333 14.1334L7.73332 29.4667C7.06666 30.1334 6.66666 31.0667 6.66666 32C6.66666 32.9334 7.06666 33.8667 7.73332 34.5334L29.4667 56.2667C30.1333 56.9334 31.0667 57.3334 32 57.3334C32.9333 57.3334 33.8667 56.9334 34.5333 56.2667L56.2667 34.5334C56.9333 33.8667 57.3333 32.9334 57.3333 32C57.3333 31.0667 56.9333 30.1334 56.2667 29.4667Z" fill="#F4511E"/>
</svg>
